<?xml version="1.0" standalone="no"?>
<!DOCTYPE svg PUBLIC "-//W3C//DTD SVG 20010904//EN"
 "http://www.w3.org/TR/2001/REC-SVG-20010904/DTD/svg10.dtd">
<svg version="1.0" xmlns="http://www.w3.org/2000/svg"
 width="100.000000pt" height="100.000000pt" viewBox="0 0 100.000000 100.000000"
 preserveAspectRatio="xMidYMid meet">
<metadata>
Created by potrace 1.14, written by Peter Selinger 2001-2017
</metadata>
<g transform="translate(0.000000,100.000000) scale(0.100000,-0.100000)"
fill="#000000" stroke="none">
<path d="M0 500 l0 -500 487 0 c483 0 486 0 464 19 -13 11 -20 24 -17 30 12
18 -6 41 -33 41 -17 0 -22 3 -13 8 17 11 -28 32 -68 32 -17 0 -30 5 -30 10 0
6 10 8 23 5 15 -4 32 1 48 13 l24 20 -38 7 c-26 5 -37 12 -37 25 0 18 -26 30
-66 30 -12 0 -25 7 -28 15 -4 12 -14 14 -39 10 -40 -8 -49 5 -40 60 4 26 13
39 29 46 29 10 29 12 7 45 -12 19 -14 30 -6 42 19 32 5 43 -37 26 -35 -14 -41
-14 -64 1 -15 10 -37 15 -51 13 -14 -3 -25 -1 -25 4 0 5 -5 6 -10 3 -6 -3 -10
-1 -10 4 0 21 -16 11 -17 -10 -2 -27 -9 -33 -25 -23 -7 5 -21 7 -31 6 -12 -2
-21 6 -28 26 -6 19 -20 32 -35 36 -19 5 -23 10 -16 23 12 21 76 28 94 10 28
-29 55 -38 68 -22 13 15 11 63 -3 83 -9 12 1 16 30 13 14 -2 28 43 18 58 -3 6
-19 11 -35 11 -40 0 -60 9 -53 26 3 9 -2 14 -18 15 l-24 1 25 8 c22 6 23 8 7
15 -9 4 -28 5 -42 3 -19 -4 -25 0 -27 16 -5 33 -29 25 -42 -14 -13 -39 -65
-75 -95 -65 -11 3 -22 18 -26 34 -5 24 -10 28 -41 27 -19 -1 -39 -8 -44 -16
-5 -8 -10 -12 -12 -10 -2 3 -13 19 -25 37 -38 54 -52 170 -19 157 16 -6 40 22
31 36 -3 5 -24 10 -46 10 l-39 0 0 -500z m160 250 c0 -5 -2 -10 -4 -10 -3 0
-8 5 -11 10 -3 6 -1 10 4 10 6 0 11 -4 11 -10z m-8 -35 c9 9 75 -24 82 -40 3
-9 2 -14 -3 -11 -11 7 -60 -85 -54 -101 3 -7 -1 -13 -8 -13 -7 0 -21 -7 -31
-17 -26 -23 -32 -11 -8 19 l20 26 -23 6 c-12 3 -28 15 -35 27 -11 18 -11 24 2
38 9 10 16 25 16 33 0 31 12 49 25 38 6 -5 14 -8 17 -5z m258 -29 c0 -3 -4 -8
-10 -11 -5 -3 -10 -1 -10 4 0 6 5 11 10 11 6 0 10 -2 10 -4z m-320 -177 c0 -5
-7 -9 -15 -9 -15 0 -20 12 -9 23 8 8 24 -1 24 -14z m570 -39 c0 -5 -7 -10 -15
-10 -8 0 -15 5 -15 10 0 6 7 10 15 10 8 0 15 -4 15 -10z m-569 -22 c7 -13 18
-27 25 -31 8 -4 14 -16 14 -26 0 -14 -7 -18 -25 -16 -45 5 -41 -21 8 -42 32
-15 36 -33 5 -33 -12 0 -18 -3 -15 -7 10 -9 -23 -43 -41 -43 -9 0 -12 3 -9 7
4 3 -3 17 -15 30 -23 24 -32 80 -16 100 6 7 8 20 4 28 -6 16 26 55 44 55 5 0
15 -10 21 -22z m119 -58 c0 -5 -4 -10 -10 -10 -5 0 -10 5 -10 10 0 6 5 10 10
10 6 0 10 -4 10 -10z m37 -46 c-3 -3 -12 -4 -19 -1 -8 3 -5 6 6 6 11 1 17 -2
13 -5z m33 -121 c0 -14 -3 -23 -7 -19 -10 10 -11 46 -1 46 4 0 8 -12 8 -27z"/>
<path d="M895 876 c-17 -41 -18 -46 -6 -46 5 0 11 9 14 21 3 11 15 23 27 26
24 6 22 26 -4 31 -11 2 -21 -8 -31 -32z"/>
<path d="M482 879 c-10 -15 -11 -24 -3 -32 15 -15 46 16 38 37 -9 22 -20 20
-35 -5z"/>
<path d="M370 536 c0 -9 5 -16 10 -16 6 0 10 4 10 9 0 6 -4 13 -10 16 -5 3
-10 -1 -10 -9z"/>
<path d="M991 154 c0 -11 3 -14 6 -6 3 7 2 16 -1 19 -3 4 -6 -2 -5 -13z"/>
</g>
</svg>
